# xmcd
#
# Track frame offsets:
#	150
#	10843
#	26968
#	42013
#	55390
#	70079
#	85049
#	99532
#	113269
#	126904
#	140212
#	151958
#	163512
#	176135
#	188594
#	199750
#	216245
#	229528
#	244753
#	257627
#
# Disc length: 3630 seconds
# Revision: 0
# Processed by: cddbd v1.5.2PL0 Copyright (c) Steve Scherf et al.
# Submitted via: dBpowerAMP V12.0
#
DISCID=0e0e2c14
DTITLE=Steve Earle - Uncut Gems (Demos)
DYEAR=1994
DGENRE=Country
TTITLE0=Some Blue Moons Ago
TTITLE1=She's So Mean
TTITLE2=No. 29
TTITLE3=Somethin' To Hold On To
TTITLE4=Sometimes She Forgets
TTITLE5=Tom Ames' Prayer
TTITLE6=She Can't Break My Heart
TTITLE7=When The Mornin' Comes
TTITLE8=Hot Enough For Ya
TTITLE9=Heatin' Up
TTITLE10=Hole In My Heart
TTITLE11=You Tear Me Up
TTITLE12=I Won't Be Your Next In Line
TTITLE13=My Old Friend The Blues
TTITLE14=Promise You Anything
TTITLE15=I'm Not Gettin' Any Better At Goodbyes
TTITLE16=The First Fool In Line
TTITLE17=For Better Or Worse
TTITLE18=Someone's Got To Do It
TTITLE19=I'm Still Around
EXTD=
EXTT0=
EXTT1=
EXTT2=
EXTT3=
EXTT4=
EXTT5=
EXTT6=
EXTT7=
EXTT8=
EXTT9=
EXTT10=
EXTT11=
EXTT12=
EXTT13=
EXTT14=
EXTT15=
EXTT16=
EXTT17=
EXTT18=
EXTT19=
PLAYORDER=
